# xmcd CD database file
#
# Track frame offsets:
#	150
#	15945
#	27932
#	41912
#	59072
#	74217
#	86017
#	99590
#	113150
#	128147
#	140750
#	156177
#	168690
#	184687
#	198030
#	210700
#	226570
#	242472
#	254427
#	266795
#
# Disc length: 3688 seconds
#
# Revision: 0
# Processed by: cddbd v1.5.1PL0 Copyright (c) Steve Scherf et al.
# Submitted via: CDex 1.51
#
DISCID=210e6614
DTITLE=Quincy Jones - Moanin The Best Quincy Jones
DYEAR=1900
DGENRE=Jazz
TTITLE0=The Pink Panther
TTITLE1=On The Street Where You Live
TTITLE2=Moanin'
TTITLE3=The Sidewinder
TTITLE4=Watermelon Man
TTITLE5=Moon River
TTITLE6=Manha Do Carnival
TTITLE7=Peter Gunn
TTITLE8=Charade
TTITLE9=Tuxedo Junction
TTITLE10=Whisper Not
TTITLE11=The Midnight Sun Will Never Set
TTITLE12=Take Five
TTITLE13=Desafinado
TTITLE14=Cast Your Fate To The Wind
TTITLE15=Hard Day's Night
TTITLE16=(I Can't Get On)Satisfaction
TTITLE17=Harlem Nocturne
TTITLE18=A Lover's Concerto
TTITLE19=Papa's Got A Brand New Bag
EXTD=
EXTT0=
EXTT1=
EXTT2=
EXTT3=
EXTT4=
EXTT5=
EXTT6=
EXTT7=
EXTT8=
EXTT9=
EXTT10=
EXTT11=
EXTT12=
EXTT13=
EXTT14=
EXTT15=
EXTT16=
EXTT17=
EXTT18=
EXTT19=
PLAYORDER=
